#!OML:ASF E:/inclinewalkrobotboard/Project1/Captureday1/Session1/subject1.ASF
:FULLY-SPECIFIED
:DEGREES
163
root 0 0 0 2.0826769582572817 1.225826583456341 -1.0218131391119418
lowerback 10.995566830253855 -0.29397844839297205 -2.2871837055869593
upperback 2.01290871816824 -0.6925959036530775 1.1005187641658323
thorax -3.934439491917545 -0.25324302230316675 2.417492764483299
lowerneck -6.555453467772519 -1.9718772938263858 -0.1721579804466361
upperneck 24.47662695305707 -3.0581747631525458 2.3832041620289686
head 9.235322750729722 -1.2791578621672093 0.5900827643784061
rclavicle 5.167483395950364E-15 2.6388114556621376E-15
rhumerus -8.174004712393236 13.842407628437154 -50.72019533309867
rradius 106.75161103954079
rwrist -42.624009025477335
rhand -4.099295528027934 -54.655774937754096
rfingers 7.125020000000006
rthumb 21.668545919929414 -83.26697022790769
lclavicle 1.8052099163982232E-15 3.826695659963824E-15
lhumerus -44.49530394011505 -7.522866651156509 85.374433634043
lradius 61.877809079643384
lwrist 7.2000487388574665
lhand -11.690359694380387 -28.965165424512058
lfingers 7.125020000000018
lthumb 14.363319494853753 0.5942742899362727
rfemur 1.2202078993378391 -0.5317856872526723 -2.9969221650874633
rtibia -4.628520228041044
rfoot 0.9113452416727874 0.6545940254496503
rtoes -0.7471713737822012
lfemur 0.8503639085967398 -6.436578783739083 -10.181744220312776
ltibia 22.31857983068003
lfoot -28.19174411022365 14.333361107510306
ltoes -60.07207258200223
164
root 0 0 0 2.0821575917108124 1.2253061664951432 -1.020201889763979
lowerback 10.992652033126806 -0.29474584183262065 -2.287883179433308
upperback 2.0092644728604956 -0.6936853633473816 1.1008657064207894
thorax -3.936704665785329 -0.25373652599214513 2.418414913575478
lowerneck -6.562171081933443 -1.971015244025779 -0.1725992537379698
upperneck 24.48765671191669 -3.0570133208105217 2.381215142236882
head 9.240127595115641 -1.2785817160553763 0.5894138056044043
rclavicle 5.175806260958584E-15 2.636239314780256E-15
rhumerus -8.205490234211453 13.825702894090632 -50.74129665202909
rradius 106.7054836663215
rwrist -42.608085299035686
rhand -4.097672375991982 -54.657133097521196
rfingers 7.125020000000006
rthumb 21.67006953165763 -83.26836424387885
lclavicle 1.811242838124029E-15 3.823757809992971E-15
lhumerus -44.49380709204709 -7.521707973468598 85.37668350651627
lradius 61.87389963959782
lwrist 7.1976086788218705
lhand -11.689928571352866 -28.965067033938094
lfingers 7.125020000000018
lthumb 14.363703914746456 0.5943414510251692
rfemur 1.220485999040947 -0.5321805166672129 -2.9980789902932035
rtibia -4.628794859548041
rfoot 0.912378843758824 0.6550046725198171
rtoes -0.7469099078733088
lfemur 0.8548039861273304 -6.439157157948097 -10.185029980217386
ltibia 22.317652990185056
lfoot -28.1906954473414 14.332008735393204
ltoes -60.059689449673634
165
root 0 0 0 2.0820336129230133 1.2240892888354895 -1.021592843978869
lowerback 10.993738822190602 -0.2940880957201609 -2.2867771417343086
upperback 2.0117943307784807 -0.692662106417306 1.1011982610351996
thorax -3.9345275631160894 -0.25323491922669883 2.418060041501758
lowerneck -6.557824193145173 -1.9712631226469117 -0.17222980287585887
upperneck 24.488882858781096 -3.0573205642114605 2.381925478957238
head 9.239773944758708 -1.2787147863109585 0.5896026335309301
rclavicle 5.139808457590317E-15 2.6870180106930005E-15
rhumerus -8.262400016867327 13.838688812937807 -50.7887745700675
rradius 106.67418570429456
rwrist -42.56730718161645
rhand -4.106500357213104 -54.638264323762094
rfingers 7.125020000000006
rthumb 21.66152795491506 -83.2491280313016
lclavicle 1.7654483822730508E-15 3.8540744374498674E-15
lhumerus -44.48049316534419 -7.52812843848795 85.3877693989988
lradius 61.86956141185586
lwrist 7.198798669223764
lhand -11.692098178098924 -28.95930374176851
lfingers 7.125020000000018
lthumb 14.361527584643643 0.5994834125416553
rfemur 1.2212105180089887 -0.5320616599180252 -2.9970937103180706
rtibia -4.62764624931058
rfoot 0.9120355506803035 0.6550141194992132
rtoes -0.746577230710739
lfemur 0.8476783700083432 -6.434721297180372 -10.179573989534116
ltibia 22.31775827556315
lfoot -28.194506138379072 14.334769231047568
ltoes -60.079622905832395
166
root 0 0 0 2.08346628886815 1.2258270865659404 -1.0200598947894601
lowerback 10.992261906232894 -0.29482498495182174 -2.287585779651274
upperback 2.008444088445439 -0.6937528207667214 1.10087112026892
thorax -3.937285811698971 -0.2537710932933249 2.418233055033853
lowerneck -6.564850043612107 -1.970805631642111 -0.17303108401507028
upperneck 24.49564750343559 -3.056824664998621 2.3802461033542377
head 9.243243960122683 -1.2784449428075568 0.5890683941054566
rclavicle 5.169765423356536E-15 2.6492868610304057E-15
rhumerus -8.25596332363187 13.826996849098123 -50.7871303080989
rradius 106.65609523971224
rwrist -42.56801496274595
rhand -4.101227396924617 -54.64639935126109
rfingers 7.125020000000006
rthumb 21.666613706293802 -83.25810433510162
lclavicle 1.7998450542874424E-15 3.840001345664656E-15
lhumerus -44.48566250808523 -7.524497894320207 85.38381757062176
lradius 61.8692957081926
lwrist 7.196978682582289
lhand -11.690834239732315 -28.961668952343015
lfingers 7.125020000000018
lthumb 14.362680045485256 0.5976635050157739
rfemur 1.2191360059412313 -0.5317969087050551 -2.995873373601798
rtibia -4.625158485394881
rfoot 0.9117351349212655 0.6544063227229979
rtoes -0.7464999596036794
lfemur 0.8585089915377724 -6.441870544779073 -10.184376096265057
ltibia 22.31412560343528
lfoot -28.19552310186612 14.335756641890937
ltoes -60.06562799286692
